<svg width="155" height="160" viewBox="0 0 155 160" fill="none" xmlns="http://www.w3.org/2000/svg">
    <path d="M100.5 38V20C100.5 11.7157 93.7843 5 85.5 5H20.5C12.2157 5 5.5 11.7157 5.5 20V140C5.5 148.284 12.2157 155 20.5 155H85.5C93.7843 155 100.5 148.284 100.5 140V132"
          stroke="#23548C" stroke-width="10" stroke-linecap="round"/>
    <path d="M58.5 80C55.7386 80 53.5 82.2386 53.5 85C53.5 87.7614 55.7386 90 58.5 90V80ZM153.536 88.5355C155.488 86.5829 155.488 83.4171 153.536 81.4645L121.716 49.6447C119.763 47.692 116.597 47.692 114.645 49.6447C112.692 51.5973 112.692 54.7631 114.645 56.7157L142.929 85L114.645 113.284C112.692 115.237 112.692 118.403 114.645 120.355C116.597 122.308 119.763 122.308 121.716 120.355L153.536 88.5355ZM58.5 85V90H150V85V80H58.5V85Z"
          fill="#23548C"/>
</svg>
