<svg width="205" height="203" viewBox="0 0 205 203" fill="none" xmlns="http://www.w3.org/2000/svg">
    <path d="M25.0097 177.51V108.51L90.5097 155.01L156.01 108.51V177.51C130.51 194.51 87.5097 222.01 25.0097 177.51Z" fill="#2D5289" stroke="#2D5289"/>
    <path d="M25.0097 177.51V108.51L90.5097 155.01L156.01 108.51V177.51C130.51 194.51 87.5097 222.01 25.0097 177.51Z" fill="#2D5289" stroke="#2D5289"/>
    <path d="M25.0097 177.51C87.5097 222.01 130.51 194.51 156.01 177.51V165.51C104.01 213.11 47.0097 184.843 25.0097 165.01V177.51Z" fill="#DDB04A" stroke="#DDB04A"/>
    <path d="M24.5097 108.01L91.0194 155.01L156.51 108.01V118.123L91.0194 167.01L24.5097 118.123L24.5097 108.01Z" fill="#102E56"/>
    <path d="M0 90.5097L90.5097 31.0097L181.019 90.5097L90.5097 155.01L0 90.5097Z" fill="#2D5289"/>
    <path d="M90.5097 90.7645L178.019 90.7645C179.676 90.7645 181.019 92.108 181.019 93.7651L181.01 138.51" stroke="#DDB04A" stroke-width="3" stroke-linecap="round"/>
    <circle cx="181.01" cy="140.01" r="4.5" fill="#DDB04A"/>
    <path d="M181.01 138.51L190.51 159.51H171.51L181.01 138.51Z" fill="#DDB04A"/>
    <path d="M181.198 201.274L148.545 158.021L156.574 150.545L193.51 189.527L181.198 201.274Z" fill="black"/>
    <circle cx="134.085" cy="135.028" r="30.1206" fill="#B9D5FF" fill-opacity="0.8"/>
    <path d="M133.557 97.5097C154.569 97.5097 171.603 114.544 171.603 135.557C171.603 156.569 154.569 173.603 133.557 173.603C112.544 173.603 95.5097 156.569 95.5097 135.557C95.5098 114.544 112.544 97.5098 133.557 97.5097ZM134.085 104.908C117.45 104.908 103.965 118.393 103.965 135.028C103.965 151.663 117.45 165.149 134.085 165.149C150.72 165.149 164.206 151.663 164.206 135.028C164.206 118.393 150.72 104.908 134.085 104.908Z" fill="black"/>
    <path d="M138.218 115.102C136.526 112.934 138.06 109.928 140.725 110.608C147.22 112.266 153.034 116.521 156.486 122.877C158.609 126.786 159.578 131.012 159.511 135.163C159.469 137.71 156.41 138.405 154.843 136.398C154.409 135.842 154.187 135.154 154.159 134.45C154.042 131.522 153.27 128.576 151.777 125.827C149.182 121.049 144.901 117.771 140.073 116.329C139.346 116.111 138.685 115.7 138.218 115.102Z" fill="white"/>
</svg>